<svg width="460" height="126" viewBox="0 0 460 126" fill="none" xmlns="http://www.w3.org/2000/svg">
<path d="M176.8 100H193V72.4C193 62.8 199 56.8 206.8 56.8C210.4 56.8 212.2 57.4 212.2 57.4V40H211C199.6 40 193.6 49.6 193.6 49.6H193V41.2H176.8V100Z" fill="black"/>
<path d="M246.414 101.2C263.814 101.2 277.614 87.4 277.614 70.6C277.614 53.8 263.814 40 246.414 40C229.014 40 215.214 53.8 215.214 70.6C215.214 87.4 229.014 101.2 246.414 101.2ZM246.414 86.2C238.014 86.2 231.414 79.6 231.414 70.6C231.414 61.6 238.014 55 246.414 55C254.814 55 261.414 61.6 261.414 70.6C261.414 79.6 254.814 86.2 246.414 86.2Z" fill="black"/>
<path d="M306.395 101.2C322.595 101.2 330.995 92.8 330.995 82.6C330.995 63.4 300.995 64.6 300.995 58C300.995 56.2 302.795 54.4 306.995 54.4C315.395 54.4 320.195 59.2 320.195 59.2L329.795 49C329.795 49 321.995 40 306.995 40C291.995 40 283.595 48.4 283.595 58C283.595 77.2 313.595 76 313.595 82.6C313.595 85 311.795 86.8 306.395 86.8C296.795 86.8 290.795 80.2 290.795 80.2L281.195 90.4C281.195 90.4 290.195 101.2 306.395 101.2Z" fill="black"/>
<path d="M367.005 101.2C383.205 101.2 392.205 91.6 392.205 91.6L383.805 80.2C383.805 80.2 378.405 86.8 368.205 86.8C359.205 86.8 354.405 82 352.605 76.6H395.205C395.205 76.6 395.805 73.6 395.805 69.4C395.805 53.2 382.605 40 366.405 40C349.605 40 335.805 53.8 335.805 70.6C335.805 87.4 349.605 101.2 367.005 101.2ZM352.605 64.6C354.405 59.2 359.205 54.4 365.805 54.4C372.405 54.4 377.205 59.2 379.005 64.6H352.605Z" fill="black"/>
<path d="M412.642 125.2C423.442 125.2 430.522 118 435.442 104.8L459.442 41.2H442.042L428.842 80.2H428.242L414.442 41.2H397.042L419.842 99.4L418.642 102.4C416.962 106.6 413.842 109.6 408.442 109.6C404.842 109.6 401.842 108.4 401.842 108.4V123.4C401.842 123.4 406.642 125.2 412.642 125.2Z" fill="black"/>
<path fill-rule="evenodd" clip-rule="evenodd" d="M27.7845 12.2174C25.4276 12.7089 23.1514 13.3217 20.9867 14.0524C9.76644 17.8397 0 25.4644 0 37.2232C0 46.4344 5.18671 52.353 12.0302 56.0699C18.6423 59.6611 27.1749 61.4484 35.0827 62.6989C38.0039 63.1608 40.8112 63.5479 43.4677 63.9141C48.3252 64.5838 52.6789 65.184 56.3044 66.0459C59.0856 66.707 60.8674 67.4084 61.8507 68.088C62.087 68.2513 62.2333 68.384 62.3217 68.4781C53.4623 73.4542 44.1372 79.8212 37.3536 87.3157C35.8711 88.9535 35.997 91.483 37.6349 92.9655C39.2727 94.448 41.8022 94.3221 43.2847 92.6842C55.3848 79.3162 77.2669 69.434 87.2092 65.5154C101.981 60.4291 112.905 50.9777 114.717 38.193C114.749 37.9613 114.762 37.7314 114.755 37.5053C115.902 28.8215 112.963 21.5099 107.376 15.7921C101.863 10.1487 93.8665 6.12679 84.8684 3.4315C75.6638 0.674346 61.0752 -0.640292 49.3546 0.304439C43.5506 0.772273 37.9359 1.8284 33.959 3.87207C31.9563 4.90126 29.9773 6.37899 28.8003 8.54345C28.1619 9.71742 27.8328 10.957 27.7845 12.2174ZM37.8081 10.8909C45.1851 10.4395 52.8931 11.0672 60.1595 12.8589C73.3124 16.1022 82.0222 23.1101 84.639 30.8562C85.9797 34.8251 85.6826 39.0438 83.2722 42.5314C80.9014 45.9617 76.9069 48.0824 72.0198 48.8628C66.9255 49.6764 61.0253 48.3695 55.9545 46.973C54.0001 46.4348 52.1723 45.8869 50.4599 45.3736C47.3474 44.4406 44.6158 43.6217 42.1969 43.1828C40.5988 42.8927 39.6151 42.8754 39.0767 42.951C39.0416 43.4532 39.1005 44.5227 39.6651 46.4531C40.3332 48.7376 41.58 51.8046 43.5962 55.8519C43.7289 55.8703 43.8615 55.8886 43.994 55.907C49.1341 56.6185 54.1702 57.3156 58.1546 58.2628C61.1647 58.9783 64.1476 59.9508 66.399 61.5068C67.6072 62.3417 68.6804 63.411 69.4184 64.716C75.4329 61.7044 80.7843 59.4463 84.3613 58.0389C84.4166 58.0172 84.4724 57.9967 84.5286 57.9774C97.8684 53.404 105.433 45.7545 106.757 37.3301C106.751 37.1102 106.764 36.887 106.796 36.6621C107.663 30.5404 105.732 25.557 101.654 21.3827C97.4436 17.0729 90.8648 13.5788 82.5729 11.0951C74.4875 8.67318 60.9185 7.39829 49.9974 8.27858C44.6177 8.71221 40.3693 9.63589 37.8081 10.8909ZM34.1057 54.4311C33.1864 52.2972 32.4823 50.393 31.9868 48.6989C31.1256 45.7544 30.7261 42.9013 31.4322 40.4394C31.8108 39.1195 32.5069 37.9191 33.5621 36.9684C34.5969 36.0359 35.7921 35.5093 36.9371 35.2262C39.1008 34.691 41.5032 34.9262 43.6253 35.3113C46.4702 35.8276 49.9644 36.8713 53.379 37.8913C54.9886 38.3721 56.5806 38.8477 58.0785 39.2602C63.1896 40.6677 67.5605 41.4736 70.7581 40.963C74.163 40.4192 75.9026 39.1237 76.6911 37.9829C77.44 36.8994 77.7271 35.392 77.0598 33.4166C75.6604 29.2742 69.9846 23.5213 58.2442 20.6263C46.4866 17.7271 33.4649 18.284 23.5451 21.6323C13.3878 25.0608 8 30.7455 8 37.2232C8 42.6909 10.7812 46.2877 15.8485 49.0399C20.6435 51.6443 27.0948 53.2313 34.1057 54.4311Z" fill="black"/>
<path fill-rule="evenodd" clip-rule="evenodd" d="M108.056 44.569C109.951 45.7047 110.567 48.1614 109.431 50.0563C105.961 55.8452 104.069 63.6139 104.069 73.6403C104.069 102.077 83.6058 126 57.3536 126C31.1014 126 10.6384 102.077 10.6384 73.6403C10.6384 63.6864 8.53997 55.9848 4.67822 50.2283C3.44751 48.3937 3.93703 45.9088 5.7716 44.6781C7.60617 43.4474 10.0911 43.9369 11.3218 45.7715C16.3112 53.2089 18.6384 62.601 18.6384 73.6403C18.6384 98.6204 36.4239 118 57.3536 118C78.2833 118 96.0688 98.6204 96.0688 73.6403C96.0688 62.6735 98.1306 53.3486 102.569 45.9435C103.705 44.0486 106.162 43.4332 108.056 44.569Z" fill="black"/>
<path fill-rule="evenodd" clip-rule="evenodd" d="M77.5616 47.4049C78.1738 42.0722 78.1346 37.6625 77.5075 34.8791L85.3118 33.1206C86.2343 37.2146 86.1564 42.6812 85.5094 48.3173C84.8522 54.043 83.564 60.3011 81.8352 66.1361L74.1648 63.8636C75.7683 58.4513 76.9598 52.648 77.5616 47.4049Z" fill="black"/>
</svg>
