<?xml version="1.0" standalone="no"?>
<!DOCTYPE svg PUBLIC "-//W3C//DTD SVG 20010904//EN"
 "http://www.w3.org/TR/2001/REC-SVG-20010904/DTD/svg10.dtd">
<svg version="1.0" xmlns="http://www.w3.org/2000/svg"
 width="700.000000pt" height="700.000000pt" viewBox="0 0 700.000000 700.000000"
 preserveAspectRatio="xMidYMid meet">
<metadata>
Created by potrace 1.14, written by Peter Selinger 2001-2017
</metadata>
<g transform="translate(0.000000,700.000000) scale(0.100000,-0.100000)"
fill="#000000" stroke="none">
<path d="M3209 6436 c-2 -2 -51 -7 -108 -11 -57 -3 -111 -8 -120 -10 -9 -1
-43 -6 -76 -10 -191 -22 -432 -93 -554 -163 -141 -81 -219 -176 -249 -301 -18
-73 -22 -78 -80 -87 -58 -9 -254 -70 -353 -109 -241 -95 -402 -194 -567 -350
-153 -143 -259 -339 -298 -545 -10 -56 -11 -206 -2 -278 21 -159 92 -331 190
-457 62 -79 107 -161 156 -281 38 -95 85 -256 98 -339 3 -22 8 -43 10 -46 1
-3 6 -34 9 -70 4 -35 9 -75 11 -89 4 -24 8 -105 19 -405 3 -77 7 -151 9 -165
3 -14 7 -47 10 -75 3 -27 8 -63 11 -80 70 -398 192 -711 401 -1025 242 -365
568 -642 964 -818 129 -58 320 -112 500 -143 124 -21 450 -18 585 6 17 3 44 7
60 10 55 9 73 14 152 35 685 189 1244 734 1508 1469 27 74 83 270 91 316 2 17
7 37 9 45 2 8 7 30 10 48 3 17 7 44 10 60 2 15 7 47 10 72 3 25 8 61 10 80 5
35 10 141 20 420 7 165 8 178 30 340 17 123 73 323 123 437 21 48 64 122 95
163 133 177 219 388 246 605 10 78 9 344 -2 361 -3 5 -8 25 -11 44 -33 203
-151 420 -329 607 -218 228 -537 412 -957 553 -88 29 -335 92 -405 103 -16 3
-75 12 -130 21 -55 10 -120 19 -145 22 -25 3 -55 7 -68 9 -13 2 -65 7 -115 11
-51 3 -101 8 -112 11 -23 5 -661 14 -666 9z m606 -380 c61 -4 121 -9 135 -11
14 -2 54 -7 90 -10 476 -45 950 -198 1270 -410 101 -67 112 -76 201 -159 141
-132 242 -313 265 -473 16 -112 7 -283 -21 -388 -21 -81 -100 -242 -126 -255
-11 -6 -39 -41 -63 -78 -61 -95 -144 -173 -289 -273 -91 -63 -276 -163 -369
-200 -126 -50 -209 -78 -203 -69 6 9 40 180 50 248 38 256 49 382 49 567 0
157 -9 252 -31 340 -8 33 -17 71 -20 85 -3 14 -23 63 -44 108 -121 261 -373
479 -744 643 -52 23 -295 105 -336 113 -13 3 -89 18 -169 35 -80 17 -171 33
-203 36 -32 4 -68 8 -79 10 -57 11 -232 20 -411 20 -108 0 -197 1 -197 2 0 1
26 11 58 23 70 27 245 66 332 75 36 4 74 9 85 11 11 2 72 7 135 10 63 4 116 7
117 8 6 5 418 -2 518 -8z m-810 -500 c109 -8 163 -14 235 -26 30 -5 73 -12 95
-15 22 -3 96 -19 163 -36 385 -94 674 -261 824 -473 79 -113 104 -236 64 -314
-35 -67 -126 -126 -236 -153 -61 -14 -246 -19 -300 -8 -19 4 -55 11 -80 14
-24 4 -47 8 -50 10 -3 2 -21 6 -40 9 -52 9 -193 47 -402 110 -347 103 -490
134 -625 134 -99 0 -151 -11 -222 -46 -160 -80 -221 -269 -166 -512 19 -81 77
-255 100 -301 28 -52 32 -51 -115 -25 -339 62 -668 180 -825 296 -175 130
-256 277 -256 470 0 94 7 136 36 211 88 224 351 423 705 534 158 49 321 87
435 100 32 4 68 9 79 11 11 2 63 6 116 10 52 3 96 7 97 8 5 4 290 -2 368 -8z
m-240 -1131 c56 -10 213 -52 477 -129 198 -58 310 -88 383 -102 40 -8 121 -23
155 -30 19 -4 107 -8 195 -9 169 -3 261 12 392 63 29 11 51 17 49 14 -2 -4 -7
-34 -10 -67 -4 -33 -9 -67 -11 -75 -2 -8 -6 -31 -9 -50 -11 -72 -38 -208 -62
-310 -14 -58 -27 -112 -29 -120 -16 -72 -13 -70 -139 -131 -107 -52 -122 -57
-131 -43 -16 27 -87 99 -125 127 -95 70 -330 155 -505 183 -11 2 -72 12 -135
23 -63 11 -133 22 -155 25 -22 4 -53 9 -70 11 -16 3 -43 7 -60 9 -16 2 -56 7
-89 12 l-59 7 -47 101 c-105 223 -172 430 -161 498 1 7 86 3 146 -7z m-952
-780 c65 -19 128 -37 140 -39 12 -3 87 -18 167 -35 80 -16 159 -32 175 -35 17
-2 73 -12 125 -20 52 -9 111 -18 130 -20 19 -2 87 -12 150 -21 63 -9 129 -18
145 -20 51 -7 309 -46 335 -51 14 -2 41 -7 60 -10 143 -23 328 -72 388 -103
83 -43 84 -39 -45 -116 -128 -75 -305 -186 -313 -195 -3 -3 -23 -17 -44 -30
-57 -35 -277 -201 -381 -288 -131 -111 -324 -306 -340 -346 -39 -92 -1 -196
88 -243 39 -20 122 -21 159 -2 15 8 82 68 150 134 150 146 162 157 313 274
338 264 853 561 1350 778 143 62 182 79 432 177 78 31 184 78 236 106 l95 49
-9 -39 c-5 -21 -11 -58 -13 -81 -3 -24 -7 -62 -10 -84 -9 -68 -17 -221 -21
-408 -2 -99 -6 -192 -9 -206 -3 -14 -8 -48 -11 -76 -8 -71 -24 -160 -42 -230
-8 -33 -17 -70 -19 -81 -9 -48 -88 -262 -129 -350 -38 -81 -142 -268 -168
-299 -4 -5 -25 -33 -45 -62 -67 -91 -105 -136 -192 -223 -473 -477 -1121 -636
-1725 -422 -532 187 -973 667 -1161 1262 -44 139 -79 298 -90 408 -3 37 -8 70
-10 73 -2 4 -6 87 -9 185 -6 215 -14 360 -20 394 -2 14 -7 48 -10 75 -11 89
-16 119 -36 203 -10 46 -19 85 -19 87 0 2 26 -5 58 -16 31 -11 110 -35 175
-54z"/>
</g>
</svg>
